<?xml version="1.0" encoding="UTF-8" standalone="no"?>
<svg
   width="1129"
   height="663"
   viewBox="0 0 1129 663"
   version="1.1"
   id="svg4977"
   sodipodi:docname="rk_on_screen.svg"
   inkscape:version="1.2.1 (9c6d41e410, 2022-07-14)"
   xmlns:inkscape="http://www.inkscape.org/namespaces/inkscape"
   xmlns:sodipodi="http://sodipodi.sourceforge.net/DTD/sodipodi-0.dtd"
   xmlns="http://www.w3.org/2000/svg"
   xmlns:svg="http://www.w3.org/2000/svg"
   xmlns:rdf="http://www.w3.org/1999/02/22-rdf-syntax-ns#"
   xmlns:cc="http://creativecommons.org/ns#"
   xmlns:dc="http://purl.org/dc/elements/1.1/">
  <defs
     id="defs4981">
    <rect
       x="-150.51968"
       y="99.947754"
       width="211.59494"
       height="176.11391"
       id="rect916" />
  </defs>
  <sodipodi:namedview
     id="namedview4979"
     pagecolor="#ffffff"
     bordercolor="#000000"
     borderopacity="0.25"
     inkscape:showpageshadow="2"
     inkscape:pageopacity="0.0"
     inkscape:pagecheckerboard="0"
     inkscape:deskcolor="#d1d1d1"
     showgrid="false"
     inkscape:zoom="0.79487179"
     inkscape:cx="519.58065"
     inkscape:cy="330.87097"
     inkscape:window-width="1366"
     inkscape:window-height="699"
     inkscape:window-x="0"
     inkscape:window-y="32"
     inkscape:window-maximized="1"
     inkscape:current-layer="layer1" />
  <title
     id="title4901">Focus on What Matters</title>
  <circle
     cx="321"
     cy="321"
     r="321"
     fill="#f2f2f2"
     id="circle4903" />
  <ellipse
     cx="559"
     cy="635.49998"
     rx="514"
     ry="27.50002"
     fill="#3f3d56"
     id="ellipse4905" />
  <ellipse
     cx="558"
     cy="627"
     rx="460"
     ry="22"
     opacity="0.2"
     id="ellipse4907" />
  <rect
     x="131"
     y="152.5"
     width="840"
     height="50"
     fill="#3f3d56"
     id="rect4909" />
  <path
     d="M166.5,727.3299A21.67009,21.67009,0,0,0,188.1701,749H984.8299A21.67009,21.67009,0,0,0,1006.5,727.3299V296h-840Z"
     transform="translate(-35.5 -118.5)"
     fill="#3f3d56"
     id="path4911" />
  <path
     d="M984.8299,236H188.1701A21.67009,21.67009,0,0,0,166.5,257.6701V296h840V257.6701A21.67009,21.67009,0,0,0,984.8299,236Z"
     transform="translate(-35.5 -118.5)"
     fill="#3f3d56"
     id="path4913" />
  <path
     d="M984.8299,236H188.1701A21.67009,21.67009,0,0,0,166.5,257.6701V296h840V257.6701A21.67009,21.67009,0,0,0,984.8299,236Z"
     transform="translate(-35.5 -118.5)"
     opacity="0.2"
     id="path4915" />
  <circle
     cx="181"
     cy="147.5"
     r="13"
     fill="#3f3d56"
     id="circle4917" />
  <circle
     cx="217"
     cy="147.5"
     r="13"
     fill="#3f3d56"
     id="circle4919" />
  <circle
     cx="253"
     cy="147.5"
     r="13"
     fill="#3f3d56"
     id="circle4921" />
  <rect
     x="168"
     y="213.5"
     width="337"
     height="386"
     rx="5.33505"
     fill="#606060"
     id="rect4923"
     style="fill:#cccccc" />
  <rect
     x="603"
     y="272.5"
     width="284"
     height="22"
     rx="5.47638"
     fill="#2e8555"
     id="rect4925"
     style="fill:#5959ff;fill-opacity:1" />
  <rect
     x="537"
     y="352.5"
     width="416"
     height="15"
     rx="5.47638"
     fill="#2e8555"
     id="rect4927"
     style="fill:#5959ff;fill-opacity:1" />
  <rect
     x="537"
     y="396.5"
     width="416"
     height="15"
     rx="5.47638"
     fill="#2e8555"
     id="rect4929"
     style="fill:#5959ff;fill-opacity:1" />
  <rect
     x="537"
     y="440.5"
     width="416"
     height="15"
     rx="5.47638"
     fill="#2e8555"
     id="rect4931"
     style="fill:#5959ff;fill-opacity:1" />
  <rect
     x="537"
     y="484.5"
     width="416"
     height="15"
     rx="5.47638"
     fill="#2e8555"
     id="rect4933"
     style="fill:#5959ff;fill-opacity:1" />
  <rect
     x="865"
     y="552.5"
     width="88"
     height="26"
     rx="7.02756"
     fill="#3ecc5f"
     id="rect4935"
     style="fill:#3e6bcc;fill-opacity:1" />
  <g
     inkscape:groupmode="layer"
     id="layer1"
     inkscape:label="RK"
     transform="matrix(0.96755904,0,0,0.96755904,199.67662,263.31381)">
    <g
       inkscape:groupmode="layer"
       id="layer8"
       inkscape:label="circle"
       style="display:inline;opacity:1">
      <circle
         style="fill:#34094b;fill-opacity:1;stroke-width:0.264583"
         id="path5268"
         cx="135.62074"
         cy="135.66449"
         r="124.48151" />
    </g>
    <g
       aria-label="RK"
       transform="matrix(1.351601,0,0,1.351601,251.95407,-56.512116)"
       id="text914"
       style="font-size:80.5338px;line-height:1.25;letter-spacing:0px;word-spacing:0px;white-space:pre;shape-inside:url(#rect916);display:inline;fill:#ffffff">
      <path
         d="m -126.03726,143.25557 h 4.5099 c 6.36217,0.0805 8.85871,2.41602 9.10032,8.85872 l 0.2416,3.14082 c 0.4832,6.04003 0.7248,7.48964 1.53014,9.66406 1.93281,4.99309 5.9595,7.48964 12.241136,7.48964 8.69765,0 13.690746,-4.83203 13.690746,-13.44915 v -0.9664 h -4.348825 c -0.08053,5.07363 -1.288541,7.65071 -3.704555,7.65071 -0.885872,0 -1.852277,-0.4832 -2.33548,-1.12747 -0.483203,-0.72481 -0.563737,-1.28854 -0.966406,-3.86563 0,-0.40266 -0.161067,-1.12747 -0.322135,-2.25494 l -0.563736,-3.06029 c -1.208007,-7.24804 -4.268295,-10.87206 -11.274735,-13.20754 4.26829,-0.80534 6.36217,-1.36907 8.375518,-2.33548 4.912562,-2.49655 7.731244,-6.92591 7.731244,-12.1606 0,-4.83203 -2.33548,-8.93925 -6.523237,-11.6774 -3.060285,-1.93281 -8.456045,-2.89922 -15.865155,-2.89922 h -34.38794 v 4.34882 h 1.20801 c 4.34883,0 5.87897,0.32214 6.60377,1.12748 0.56374,0.88587 0.56374,1.12747 0.56374,6.12057 v 34.87113 c 0,4.9931 0,5.31523 -0.56374,6.12057 -0.7248,0.88587 -2.33548,1.12747 -6.60377,1.20801 h -1.20801 v 4.34882 h 32.21352 v -4.34882 h -2.09387 c -4.2683,-0.0805 -5.95951,-0.32214 -6.68431,-1.20801 -0.56374,-0.80534 -0.56374,-1.12747 -0.56374,-6.12057 z m 0,-4.42935 v -16.26783 c -0.0805,-4.42936 0.56374,-5.07363 5.7179,-5.15417 h 1.93281 c 7.57018,0 10.87207,3.30189 10.87207,10.711 0,8.13391 -3.38242,10.711 -14.09342,10.711 z"
         style="font-weight:bold;font-family:'TeX Gyre Schola';-inkscape-font-specification:'TeX Gyre Schola Bold'"
         id="path7859" />
      <path
         d="m -52.268302,143.98038 11.274731,18.44224 c 0.644271,1.12747 0.966406,1.85228 0.966406,2.57708 0,1.20801 -1.771744,1.85228 -5.476298,1.85228 h -1.04694 v 4.34882 H -17.2361 v -4.34882 c -4.429359,-0.2416 -4.751494,-0.40267 -8.456049,-6.20111 l -16.75103,-26.73722 6.684305,-7.00644 c 7.006441,-6.84537 11.033131,-9.18085 16.348361,-9.50299 v -4.34882 h -27.13989 v 4.34882 h 1.932811 c 3.946156,0 6.040035,0.96641 6.040035,2.81869 0,0.88587 -1.208007,2.81868 -2.657615,4.42936 l -17.79797,18.84491 v -18.84491 c 0,-4.9931 0,-5.2347 0.563737,-6.04004 0.724804,-0.88587 2.33548,-1.20801 6.684305,-1.20801 h 1.208007 V 113.0554 H -81.90474 v 4.34882 h 1.208007 c 4.268291,0 5.878967,0.32214 6.603771,1.20801 0.563737,0.80534 0.563737,1.04694 0.563737,6.04004 v 34.95166 c 0,4.9931 0,5.2347 -0.563737,6.04004 -0.724804,0.88587 -2.33548,1.20801 -6.603771,1.20801 h -1.208007 v 4.34882 h 31.327647 v -4.34882 H -51.7851 c -4.348825,0 -5.959501,-0.32214 -6.684305,-1.20801 -0.563737,-0.80534 -0.563737,-1.04694 -0.563737,-6.04004 v -8.53658 z"
         style="font-weight:bold;font-family:'TeX Gyre Schola';-inkscape-font-specification:'TeX Gyre Schola Bold'"
         id="path7861" />
    </g>
    <text
       xml:space="preserve"
       style="font-style:normal;font-weight:normal;font-size:10.5833px;line-height:1.25;font-family:sans-serif;letter-spacing:0px;word-spacing:0px;fill:#000000;fill-opacity:1;stroke:none;stroke-width:0.264583"
       x="316.2005"
       y="231.94394"
       id="text946"><tspan
         sodipodi:role="line"
         id="tspan944"
         x="316.2005"
         y="231.94394"
         style="stroke-width:0.264583" /></text>
  </g>
  <metadata
     id="metadata6790">
    <rdf:RDF>
      <cc:Work
         rdf:about="">
        <dc:title>Focus on What Matters</dc:title>
      </cc:Work>
    </rdf:RDF>
  </metadata>
</svg>
