<?xml version="1.0" encoding="UTF-8" standalone="no"?>
<svg
   width="1088"
   height="687.962"
   viewBox="0 0 1088 687.962"
   version="1.1"
   id="svg1122"
   sodipodi:docname="rk_on_mountain.svg"
   inkscape:version="1.2.1 (9c6d41e410, 2022-07-14)"
   xmlns:inkscape="http://www.inkscape.org/namespaces/inkscape"
   xmlns:sodipodi="http://sodipodi.sourceforge.net/DTD/sodipodi-0.dtd"
   xmlns="http://www.w3.org/2000/svg"
   xmlns:svg="http://www.w3.org/2000/svg"
   xmlns:rdf="http://www.w3.org/1999/02/22-rdf-syntax-ns#"
   xmlns:cc="http://creativecommons.org/ns#"
   xmlns:dc="http://purl.org/dc/elements/1.1/">
  <defs
     id="defs1126">
    <rect
       x="-150.51968"
       y="99.947754"
       width="211.59494"
       height="176.11391"
       id="rect916" />
  </defs>
  <sodipodi:namedview
     id="namedview1124"
     pagecolor="#ffffff"
     bordercolor="#000000"
     borderopacity="0.25"
     inkscape:showpageshadow="2"
     inkscape:pageopacity="0.0"
     inkscape:pagecheckerboard="0"
     inkscape:deskcolor="#d1d1d1"
     showgrid="false"
     inkscape:zoom="0.54166551"
     inkscape:cx="329.53917"
     inkscape:cy="323.07761"
     inkscape:window-width="1366"
     inkscape:window-height="699"
     inkscape:window-x="0"
     inkscape:window-y="32"
     inkscape:window-maximized="1"
     inkscape:current-layer="layer1" />
  <title
     id="title962">Easy to Use</title>
  <g
     id="Group_12"
     data-name="Group 12"
     transform="translate(-57 -56)">
    <g
       id="Group_11"
       data-name="Group 11"
       transform="translate(57 56)">
      <path
         id="Path_83"
         data-name="Path 83"
         d="M1017.81,560.461c-5.27,45.15-16.22,81.4-31.25,110.31-20,38.52-54.21,54.04-84.77,70.28a193.275,193.275,0,0,1-27.46,11.94c-55.61,19.3-117.85,14.18-166.74,3.99a657.282,657.282,0,0,0-104.09-13.16q-14.97-.675-29.97-.67c-15.42.02-293.07,5.29-360.67-131.57-16.69-33.76-28.13-75-32.24-125.27-11.63-142.12,52.29-235.46,134.74-296.47,155.97-115.41,369.76-110.57,523.43,7.88C941.15,276.621,1036.99,396.031,1017.81,560.461Z"
         transform="translate(-56 -106.019)"
         fill="#3f3d56" />
      <path
         id="Path_84"
         data-name="Path 84"
         d="M986.56,670.771c-20,38.52-47.21,64.04-77.77,80.28a193.272,193.272,0,0,1-27.46,11.94c-55.61,19.3-117.85,14.18-166.74,3.99a657.3,657.3,0,0,0-104.09-13.16q-14.97-.675-29.97-.67-23.13.03-46.25,1.72c-100.17,7.36-253.82-6.43-321.42-143.29L382,283.981,444.95,445.6l20.09,51.59,55.37-75.98L549,381.981l130.2,149.27,36.8-81.27L970.78,657.9l14.21,11.59Z"
         transform="translate(-56 -106.019)"
         fill="#f2f2f2" />
      <path
         id="Path_85"
         data-name="Path 85"
         d="M302,282.962l26-57,36,83-31-60Z"
         opacity="0.1" />
      <path
         id="Path_86"
         data-name="Path 86"
         d="M610.5,753.821q-14.97-.675-29.97-.67L465.04,497.191Z"
         transform="translate(-56 -106.019)"
         opacity="0.1" />
      <path
         id="Path_87"
         data-name="Path 87"
         d="M464.411,315.191,493,292.962l130,150-132-128Z"
         opacity="0.1" />
      <path
         id="Path_88"
         data-name="Path 88"
         d="M908.79,751.051a193.265,193.265,0,0,1-27.46,11.94L679.2,531.251Z"
         transform="translate(-56 -106.019)"
         opacity="0.1" />
      <circle
         id="Ellipse_11"
         data-name="Ellipse 11"
         cx="3"
         cy="3"
         r="3"
         transform="translate(479 98.962)"
         fill="#f2f2f2" />
      <circle
         id="Ellipse_12"
         data-name="Ellipse 12"
         cx="3"
         cy="3"
         r="3"
         transform="translate(396 201.962)"
         fill="#f2f2f2" />
      <circle
         id="Ellipse_13"
         data-name="Ellipse 13"
         cx="2"
         cy="2"
         r="2"
         transform="translate(600 220.962)"
         fill="#f2f2f2" />
      <circle
         id="Ellipse_14"
         data-name="Ellipse 14"
         cx="2"
         cy="2"
         r="2"
         transform="translate(180 265.962)"
         fill="#f2f2f2" />
      <circle
         id="Ellipse_15"
         data-name="Ellipse 15"
         cx="2"
         cy="2"
         r="2"
         transform="translate(612 96.962)"
         fill="#f2f2f2" />
      <circle
         id="Ellipse_16"
         data-name="Ellipse 16"
         cx="2"
         cy="2"
         r="2"
         transform="translate(736 192.962)"
         fill="#f2f2f2" />
      <circle
         id="Ellipse_17"
         data-name="Ellipse 17"
         cx="2"
         cy="2"
         r="2"
         transform="translate(858 344.962)"
         fill="#f2f2f2" />
      <path
         id="Path_89"
         data-name="Path 89"
         d="M306,121.222h-2.76v-2.76h-1.48v2.76H299V122.7h2.76v2.759h1.48V122.7H306Z"
         fill="#f2f2f2" />
      <path
         id="Path_90"
         data-name="Path 90"
         d="M848,424.222h-2.76v-2.76h-1.48v2.76H841V425.7h2.76v2.759h1.48V425.7H848Z"
         fill="#f2f2f2" />
      <path
         id="Path_91"
         data-name="Path 91"
         d="M1144,719.981c0,16.569-243.557,74-544,74s-544-57.431-544-74,243.557,14,544,14S1144,703.413,1144,719.981Z"
         transform="translate(-56 -106.019)"
         fill="#3f3d56" />
      <path
         id="Path_92"
         data-name="Path 92"
         d="M1144,719.981c0,16.569-243.557,74-544,74s-544-57.431-544-74,243.557,14,544,14S1144,703.413,1144,719.981Z"
         opacity="0.1"
         style="fill:#e6e6e6;opacity:0.63456968"
         transform="translate(-56 -106.019)" />
      <ellipse
         id="Ellipse_18"
         data-name="Ellipse 18"
         cx="544"
         cy="30"
         rx="544"
         ry="30"
         transform="translate(0 583.962)"
         fill="#3f3d56"
         style="fill:#b3b3b3" />
      <path
         id="Path_93"
         data-name="Path 93"
         d="M624,677.981c0,33.137-14.775,24-33,24s-33,9.137-33-24,33-96,33-96S624,644.844,624,677.981Z"
         transform="translate(-56 -106.019)"
         fill="#ff6584" />
      <path
         id="Path_94"
         data-name="Path 94"
         d="M606,690.66c0,15.062-6.716,10.909-15,10.909s-15,4.153-15-10.909,15-43.636,15-43.636S606,675.6,606,690.66Z"
         transform="translate(-56 -106.019)"
         opacity="0.1" />
      <rect
         id="Rectangle_97"
         data-name="Rectangle 97"
         width="92"
         height="18"
         rx="9"
         transform="translate(489 604.962)"
         fill="#2f2e41" />
      <rect
         id="Rectangle_98"
         data-name="Rectangle 98"
         width="92"
         height="18"
         rx="9"
         transform="translate(489 586.962)"
         fill="#2f2e41" />
      <path
         id="Path_95"
         data-name="Path 95"
         d="M193,596.547c0,55.343,34.719,100.126,77.626,100.126"
         transform="translate(-56 -106.019)"
         fill="#3f3d56" />
      <path
         id="Path_96"
         data-name="Path 96"
         d="M270.626,696.673c0-55.965,38.745-101.251,86.626-101.251"
         transform="translate(-56 -106.019)"
         fill="#6c63ff" />
      <path
         id="Path_97"
         data-name="Path 97"
         d="M221.125,601.564c0,52.57,22.14,95.109,49.5,95.109"
         transform="translate(-56 -106.019)"
         fill="#6c63ff" />
      <path
         id="Path_98"
         data-name="Path 98"
         d="M270.626,696.673c0-71.511,44.783-129.377,100.126-129.377"
         transform="translate(-56 -106.019)"
         fill="#3f3d56" />
      <path
         id="Path_99"
         data-name="Path 99"
         d="M254.3,697.379s11.009-.339,14.326-2.7,16.934-5.183,17.757-1.395,16.544,18.844,4.115,18.945-28.879-1.936-32.19-3.953S254.3,697.379,254.3,697.379Z"
         transform="translate(-56 -106.019)"
         fill="#a8a8a8" />
      <path
         id="Path_100"
         data-name="Path 100"
         d="M290.716,710.909c-12.429.1-28.879-1.936-32.19-3.953-2.522-1.536-3.527-7.048-3.863-9.591l-.368.014s.7,8.879,4.009,10.9,19.761,4.053,32.19,3.953c3.588-.029,4.827-1.305,4.759-3.2C294.755,710.174,293.386,710.887,290.716,710.909Z"
         transform="translate(-56 -106.019)"
         opacity="0.2" />
      <path
         id="Path_101"
         data-name="Path 101"
         d="M777.429,633.081c0,38.029,23.857,68.8,53.341,68.8"
         transform="translate(-56 -106.019)"
         fill="#3f3d56" />
      <path
         id="Path_102"
         data-name="Path 102"
         d="M830.769,701.882c0-38.456,26.623-69.575,59.525-69.575"
         transform="translate(-56 -106.019)"
         fill="#6c63ff" />
      <path
         id="Path_103"
         data-name="Path 103"
         d="M796.755,636.528c0,36.124,15.213,65.354,34.014,65.354"
         transform="translate(-56 -106.019)"
         fill="#6c63ff" />
      <path
         id="Path_104"
         data-name="Path 104"
         d="M830.769,701.882c0-49.139,30.773-88.9,68.8-88.9"
         transform="translate(-56 -106.019)"
         fill="#3f3d56" />
      <path
         id="Path_105"
         data-name="Path 105"
         d="M819.548,702.367s7.565-.233,9.844-1.856,11.636-3.562,12.2-.958,11.368,12.949,2.828,13.018-19.844-1.33-22.119-2.716S819.548,702.367,819.548,702.367Z"
         transform="translate(-56 -106.019)"
         fill="#a8a8a8" />
      <path
         id="Path_106"
         data-name="Path 106"
         d="M844.574,711.664c-8.54.069-19.844-1.33-22.119-2.716-1.733-1.056-2.423-4.843-2.654-6.59l-.253.01s.479,6.1,2.755,7.487,13.579,2.785,22.119,2.716c2.465-.02,3.317-.9,3.27-2.2C847.349,711.159,846.409,711.649,844.574,711.664Z"
         transform="translate(-56 -106.019)"
         opacity="0.2" />
      <path
         id="Path_107"
         data-name="Path 107"
         d="M949.813,724.718s11.36-1.729,14.5-4.591,16.89-7.488,18.217-3.667,19.494,17.447,6.633,19.107-30.153,1.609-33.835-.065S949.813,724.718,949.813,724.718Z"
         transform="translate(-56 -106.019)"
         fill="#a8a8a8" />
      <path
         id="Path_108"
         data-name="Path 108"
         d="M989.228,734.173c-12.86,1.659-30.153,1.609-33.835-.065-2.8-1.275-4.535-6.858-5.2-9.45l-.379.061s1.833,9.109,5.516,10.783,20.975,1.725,33.835.065c3.712-.479,4.836-1.956,4.529-3.906C993.319,732.907,991.991,733.817,989.228,734.173Z"
         transform="translate(-56 -106.019)"
         opacity="0.2" />
      <path
         id="Path_109"
         data-name="Path 109"
         d="M670.26,723.9s9.587-1.459,12.237-3.875,14.255-6.32,15.374-3.095,16.452,14.725,5.6,16.125-25.448,1.358-28.555-.055S670.26,723.9,670.26,723.9Z"
         transform="translate(-56 -106.019)"
         fill="#a8a8a8" />
      <path
         id="Path_110"
         data-name="Path 110"
         d="M703.524,731.875c-10.853,1.4-25.448,1.358-28.555-.055-2.367-1.076-3.827-5.788-4.39-7.976l-.32.051s1.547,7.687,4.655,9.1,17.7,1.456,28.555.055c3.133-.4,4.081-1.651,3.822-3.3C706.977,730.807,705.856,731.575,703.524,731.875Z"
         transform="translate(-56 -106.019)"
         opacity="0.2" />
      <path
         id="Path_111"
         data-name="Path 111"
         d="M178.389,719.109s7.463-1.136,9.527-3.016,11.1-4.92,11.969-2.409,12.808,11.463,4.358,12.553-19.811,1.057-22.23-.043S178.389,719.109,178.389,719.109Z"
         transform="translate(-56 -106.019)"
         fill="#a8a8a8" />
      <path
         id="Path_112"
         data-name="Path 112"
         d="M204.285,725.321c-8.449,1.09-19.811,1.057-22.23-.043-1.842-.838-2.979-4.506-3.417-6.209l-.249.04s1.2,5.984,3.624,7.085,13.781,1.133,22.23.043c2.439-.315,3.177-1.285,2.976-2.566C206.973,724.489,206.1,725.087,204.285,725.321Z"
         transform="translate(-56 -106.019)"
         opacity="0.2" />
      <path
         id="Path_113"
         data-name="Path 113"
         d="M439.7,707.337c0,30.22-42.124,20.873-93.7,20.873s-93.074,9.347-93.074-20.873,42.118-36.793,93.694-36.793S439.7,677.117,439.7,707.337Z"
         transform="translate(-56 -106.019)"
         opacity="0.1" />
      <path
         id="Path_114"
         data-name="Path 114"
         d="M439.7,699.9c0,30.22-42.124,20.873-93.7,20.873s-93.074,9.347-93.074-20.873S295.04,663.1,346.616,663.1,439.7,669.676,439.7,699.9Z"
         transform="translate(-56 -106.019)"
         fill="#3f3d56" />
    </g>
  </g>
  <g
     inkscape:groupmode="layer"
     id="layer1"
     inkscape:label="RK"
     transform="matrix(1.2094488,0,0,1.2094488,162.2572,334.81977)"
     style="opacity:1">
    <g
       inkscape:groupmode="layer"
       id="layer8"
       inkscape:label="circle"
       style="display:inline;opacity:1">
      <circle
         style="fill:#3d0b57;fill-opacity:1;stroke-width:0.264583"
         id="path5268"
         cx="135.62074"
         cy="135.66449"
         r="124.48151" />
    </g>
    <g
       aria-label="RK"
       transform="matrix(1.351601,0,0,1.351601,251.12724,-55.685292)"
       id="text914"
       style="font-size:80.5338px;line-height:1.25;letter-spacing:0px;word-spacing:0px;white-space:pre;shape-inside:url(#rect916);display:inline;fill:#ffffff">
      <path
         d="m -126.03726,143.25557 h 4.5099 c 6.36217,0.0805 8.85871,2.41602 9.10032,8.85872 l 0.2416,3.14082 c 0.4832,6.04003 0.7248,7.48964 1.53014,9.66406 1.93281,4.99309 5.9595,7.48964 12.241136,7.48964 8.69765,0 13.690746,-4.83203 13.690746,-13.44915 v -0.9664 h -4.348825 c -0.08053,5.07363 -1.288541,7.65071 -3.704555,7.65071 -0.885872,0 -1.852277,-0.4832 -2.33548,-1.12747 -0.483203,-0.72481 -0.563737,-1.28854 -0.966406,-3.86563 0,-0.40266 -0.161067,-1.12747 -0.322135,-2.25494 l -0.563736,-3.06029 c -1.208007,-7.24804 -4.268295,-10.87206 -11.274735,-13.20754 4.26829,-0.80534 6.36217,-1.36907 8.375518,-2.33548 4.912562,-2.49655 7.731244,-6.92591 7.731244,-12.1606 0,-4.83203 -2.33548,-8.93925 -6.523237,-11.6774 -3.060285,-1.93281 -8.456045,-2.89922 -15.865155,-2.89922 h -34.38794 v 4.34882 h 1.20801 c 4.34883,0 5.87897,0.32214 6.60377,1.12748 0.56374,0.88587 0.56374,1.12747 0.56374,6.12057 v 34.87113 c 0,4.9931 0,5.31523 -0.56374,6.12057 -0.7248,0.88587 -2.33548,1.12747 -6.60377,1.20801 h -1.20801 v 4.34882 h 32.21352 v -4.34882 h -2.09387 c -4.2683,-0.0805 -5.95951,-0.32214 -6.68431,-1.20801 -0.56374,-0.80534 -0.56374,-1.12747 -0.56374,-6.12057 z m 0,-4.42935 v -16.26783 c -0.0805,-4.42936 0.56374,-5.07363 5.7179,-5.15417 h 1.93281 c 7.57018,0 10.87207,3.30189 10.87207,10.711 0,8.13391 -3.38242,10.711 -14.09342,10.711 z"
         style="font-weight:bold;font-family:'TeX Gyre Schola';-inkscape-font-specification:'TeX Gyre Schola Bold'"
         id="path7895" />
      <path
         d="m -52.268302,143.98038 11.274731,18.44224 c 0.644271,1.12747 0.966406,1.85228 0.966406,2.57708 0,1.20801 -1.771744,1.85228 -5.476298,1.85228 h -1.04694 v 4.34882 H -17.2361 v -4.34882 c -4.429359,-0.2416 -4.751494,-0.40267 -8.456049,-6.20111 l -16.75103,-26.73722 6.684305,-7.00644 c 7.006441,-6.84537 11.033131,-9.18085 16.348361,-9.50299 v -4.34882 h -27.13989 v 4.34882 h 1.932811 c 3.946156,0 6.040035,0.96641 6.040035,2.81869 0,0.88587 -1.208007,2.81868 -2.657615,4.42936 l -17.79797,18.84491 v -18.84491 c 0,-4.9931 0,-5.2347 0.563737,-6.04004 0.724804,-0.88587 2.33548,-1.20801 6.684305,-1.20801 h 1.208007 V 113.0554 H -81.90474 v 4.34882 h 1.208007 c 4.268291,0 5.878967,0.32214 6.603771,1.20801 0.563737,0.80534 0.563737,1.04694 0.563737,6.04004 v 34.95166 c 0,4.9931 0,5.2347 -0.563737,6.04004 -0.724804,0.88587 -2.33548,1.20801 -6.603771,1.20801 h -1.208007 v 4.34882 h 31.327647 v -4.34882 H -51.7851 c -4.348825,0 -5.959501,-0.32214 -6.684305,-1.20801 -0.563737,-0.80534 -0.563737,-1.04694 -0.563737,-6.04004 v -8.53658 z"
         style="font-weight:bold;font-family:'TeX Gyre Schola';-inkscape-font-specification:'TeX Gyre Schola Bold'"
         id="path7897" />
    </g>
    <text
       xml:space="preserve"
       style="font-style:normal;font-weight:normal;font-size:10.5833px;line-height:1.25;font-family:sans-serif;letter-spacing:0px;word-spacing:0px;fill:#000000;fill-opacity:1;stroke:none;stroke-width:0.264583"
       x="316.2005"
       y="231.94394"
       id="text946"><tspan
         sodipodi:role="line"
         id="tspan944"
         x="316.2005"
         y="231.94394"
         style="stroke-width:0.264583" /></text>
  </g>
  <metadata
     id="metadata4485">
    <rdf:RDF>
      <cc:Work
         rdf:about="">
        <dc:title>Easy to Use</dc:title>
      </cc:Work>
    </rdf:RDF>
  </metadata>
</svg>
